<?xml version="1.0" encoding="UTF-8"?>
<!DOCTYPE svg PUBLIC "-//W3C//DTD SVG 1.1//EN" "http://www.w3.org/Graphics/SVG/1.1/DTD/svg11.dtd">
<svg xmlns="http://www.w3.org/2000/svg" version="1.1" width="320px" height="320px" style="shape-rendering:geometricPrecision; text-rendering:geometricPrecision; image-rendering:optimizeQuality; fill-rule:evenodd; clip-rule:evenodd" xmlns:xlink="http://www.w3.org/1999/xlink">
<g><path style="opacity:0.991" fill="#ada1ea" d="M 142.5,12.5 C 205.802,8.06688 254.302,32.4002 288,85.5C 307.712,122.067 312.046,160.401 301,200.5C 284.833,250 252,282.833 202.5,299C 143.093,313.945 92.2594,299.445 50,255.5C 16.4792,214.399 6.47924,168.066 20,116.5C 34.2087,71.6242 63.042,40.1242 106.5,22C 118.384,17.8642 130.384,14.6975 142.5,12.5 Z"/></g>
<g><path style="opacity:1" fill="#8e58a6" d="M 56.5,124.5 C 52.1667,124.5 47.8333,124.5 43.5,124.5C 43.7053,128.758 41.8719,131.758 38,133.5C 37.6258,132.584 37.1258,131.75 36.5,131C 38.492,130.426 39.992,129.259 41,127.5C 41.4986,123.848 41.6653,120.182 41.5,116.5C 43.288,116.785 44.9547,116.452 46.5,115.5C 45.1207,114.137 45.2874,113.137 47,112.5C 49.2363,115.769 52.403,117.103 56.5,116.5C 55.4696,119.229 55.4696,121.896 56.5,124.5 Z"/></g>
<g><path style="opacity:1" fill="#9160ac" d="M 85.5,113.5 C 85.7352,112.903 86.2352,112.57 87,112.5C 89.694,113.842 92.5274,114.842 95.5,115.5C 94.7542,116.736 94.4208,118.07 94.5,119.5C 95.675,119.281 96.675,119.614 97.5,120.5C 96.3112,121.429 94.9778,121.762 93.5,121.5C 93.8226,125.226 93.4892,128.893 92.5,132.5C 90.7367,133.954 89.4033,133.62 88.5,131.5C 89.376,130.749 90.376,130.249 91.5,130C 88.854,129.503 86.1873,129.336 83.5,129.5C 83.719,130.675 83.3857,131.675 82.5,132.5C 81.5108,128.893 81.1774,125.226 81.5,121.5C 80.0222,121.762 78.6888,121.429 77.5,120.5C 79.1045,118.821 79.7711,116.821 79.5,114.5C 82.3409,114.847 84.3409,114.513 85.5,113.5 Z"/></g>
<g><path style="opacity:1" fill="#8e59a6" d="M 134.5,125.5 C 134.083,128.159 133.083,130.492 131.5,132.5C 131.808,130.076 131.474,127.743 130.5,125.5C 129.167,126.833 127.833,126.833 126.5,125.5C 124.469,127.249 124.135,129.249 125.5,131.5C 124.675,132.386 123.675,132.719 122.5,132.5C 122.662,130.473 122.495,128.473 122,126.5C 121.149,129.612 119.983,129.946 118.5,127.5C 120.501,125.513 121.335,123.18 121,120.5C 119.187,121.609 118.354,120.942 118.5,118.5C 119.873,118.657 121.207,118.49 122.5,118C 120.956,117.71 119.623,117.044 118.5,116C 120.847,115.564 123.181,115.064 125.5,114.5C 126.737,114.556 127.737,115.056 128.5,116C 126.956,116.29 125.623,116.956 124.5,118C 126.797,118.018 129.131,117.851 131.5,117.5C 131.5,115.833 131.5,114.167 131.5,112.5C 132.5,112.5 133.5,112.5 134.5,112.5C 134.5,114.167 134.5,115.833 134.5,117.5C 135.833,117.5 137.167,117.5 138.5,117.5C 138.817,120.572 138.484,123.572 137.5,126.5C 136.583,125.873 135.583,125.539 134.5,125.5 Z"/></g>
<g><path style="opacity:1" fill="#8d56a4" d="M 159.5,125.5 C 158.287,127.676 156.62,128.009 154.5,126.5C 153.833,128.5 153.167,130.5 152.5,132.5C 151.679,129.553 151.179,126.553 151,123.5C 150.586,123.043 150.086,122.709 149.5,122.5C 149.494,127.129 147.661,130.796 144,133.5C 140.552,131.396 140.886,130.063 145,129.5C 145.667,128.5 145.667,127.5 145,126.5C 143.312,128.848 141.478,129.015 139.5,127C 141.547,125.927 143.547,124.761 145.5,123.5C 143.833,122.833 142.167,122.167 140.5,121.5C 142.766,120.686 145.1,120.186 147.5,120C 144.859,119.677 142.525,118.677 140.5,117C 141.949,115.883 143.616,115.216 145.5,115C 144.289,114.107 144.289,113.274 145.5,112.5C 147.116,113.115 148.449,114.115 149.5,115.5C 150.719,114.737 151.719,113.737 152.5,112.5C 154.271,113.035 154.604,113.869 153.5,115C 155.256,115.202 156.922,115.702 158.5,116.5C 156.002,118.814 153.002,119.98 149.5,120C 152.882,120.176 156.215,120.676 159.5,121.5C 151.748,122.437 151.748,123.771 159.5,125.5 Z"/></g>
<g><path style="opacity:1" fill="#8e5aa7" d="M 159.5,125.5 C 160.786,123.148 161.786,120.648 162.5,118C 161.978,117.05 161.311,116.216 160.5,115.5C 163.844,114.243 167.177,114.243 170.5,115.5C 171.386,114.675 171.719,113.675 171.5,112.5C 172.5,112.5 173.5,112.5 174.5,112.5C 174.5,113.5 174.5,114.5 174.5,115.5C 176.288,115.215 177.955,115.548 179.5,116.5C 177.654,120.582 176.987,124.915 177.5,129.5C 178.675,129.281 179.675,129.614 180.5,130.5C 175.5,131.833 170.5,131.833 165.5,130.5C 166.325,129.614 167.325,129.281 168.5,129.5C 168.665,126.15 168.498,122.817 168,119.5C 167.516,124.134 165.683,128.134 162.5,131.5C 161.5,132.833 160.5,132.833 159.5,131.5C 160.833,129.833 162.167,128.167 163.5,126.5C 162.139,126.212 160.806,125.879 159.5,125.5 Z"/></g>
<g><path style="opacity:1" fill="#8c55a2" d="M 188.5,112.5 C 191.205,112.38 191.872,113.38 190.5,115.5C 192.833,116.167 195.167,116.833 197.5,117.5C 194.833,118.167 192.167,118.833 189.5,119.5C 203.885,121.148 203.552,122.314 188.5,123C 191.146,123.497 193.813,123.664 196.5,123.5C 195.836,126.015 194.503,128.181 192.5,130C 194.405,130.826 194.739,131.993 193.5,133.5C 189.742,132.122 187.742,129.789 187.5,126.5C 188.478,126.977 189.311,127.643 190,128.5C 190.833,127.667 191.667,126.833 192.5,126C 190.1,125.814 187.766,125.314 185.5,124.5C 185.709,123.914 186.043,123.414 186.5,123C 184.423,122.808 182.423,122.308 180.5,121.5C 182.966,120.877 185.299,120.043 187.5,119C 181.097,117.577 181.431,116.743 188.5,116.5C 188.5,115.167 188.5,113.833 188.5,112.5 Z"/></g>
<g><path style="opacity:1" fill="#8c55a3" d="M 207.5,129.5 C 208.833,126.167 208.833,122.833 207.5,119.5C 207.5,117.167 207.5,114.833 207.5,112.5C 208.5,112.5 209.5,112.5 210.5,112.5C 211.167,135.167 211.833,135.167 212.5,112.5C 213.552,112.351 214.552,112.517 215.5,113C 214.378,116.409 214.211,119.909 215,123.5C 216.115,122 216.948,120.333 217.5,118.5C 218.5,117.167 219.5,117.167 220.5,118.5C 219.003,122.165 217.003,125.498 214.5,128.5C 216.5,129.167 218.5,129.833 220.5,130.5C 213.833,131.833 207.167,131.833 200.5,130.5C 202.743,129.526 205.076,129.192 207.5,129.5 Z"/></g>
<g><path style="opacity:1" fill="#8d56a4" d="M 274.5,112.5 C 275.5,112.5 276.5,112.5 277.5,112.5C 277.5,114.833 277.5,117.167 277.5,119.5C 282.833,120.167 282.833,120.833 277.5,121.5C 277.5,124.5 277.5,127.5 277.5,130.5C 279.288,130.215 280.955,130.548 282.5,131.5C 278.217,132.492 273.884,132.826 269.5,132.5C 269.351,131.448 269.517,130.448 270,129.5C 271.356,130.38 272.856,130.714 274.5,130.5C 274.5,127.5 274.5,124.5 274.5,121.5C 269.167,120.833 269.167,120.167 274.5,119.5C 274.5,117.167 274.5,114.833 274.5,112.5 Z"/></g>
<g><path style="opacity:1" fill="#9b79c4" d="M 62.5,113.5 C 62.5,117.5 62.5,121.5 62.5,125.5C 60.5853,125.216 58.9187,125.549 57.5,126.5C 56.6618,126.158 56.3284,125.492 56.5,124.5C 58.1667,124.5 59.8333,124.5 61.5,124.5C 61.185,120.629 61.5184,116.962 62.5,113.5 Z"/></g>
<g><path style="opacity:1" fill="#8e59a7" d="M 62.5,113.5 C 65.8333,113.5 69.1667,113.5 72.5,113.5C 72.1758,117.555 72.5091,121.555 73.5,125.5C 74.7362,124.754 76.0695,124.421 77.5,124.5C 77.6495,125.552 77.4828,126.552 77,127.5C 74.9361,126.409 72.7695,126.242 70.5,127C 72.019,128.351 73.3523,129.851 74.5,131.5C 73.4826,134.028 72.3159,134.028 71,131.5C 66.8821,132.798 62.7154,132.798 58.5,131.5C 60.3159,130.185 61.9825,128.685 63.5,127C 61.5273,126.505 59.5273,126.338 57.5,126.5C 58.9187,125.549 60.5853,125.216 62.5,125.5C 62.5,121.5 62.5,117.5 62.5,113.5 Z"/></g>
<g><path style="opacity:1" fill="#8d56a4" d="M 261.5,117.5 C 259.167,118.167 256.833,118.833 254.5,119.5C 256.372,121.062 258.705,122.062 261.5,122.5C 252.167,123.833 252.167,125.167 261.5,126.5C 259.257,127.474 256.924,127.808 254.5,127.5C 254.819,129.75 254.319,131.75 253,133.5C 252.667,129.167 252.333,124.833 252,120.5C 250.899,122.394 249.566,123.061 248,122.5C 247.501,126.152 247.335,129.818 247.5,133.5C 246.5,133.5 245.5,133.5 244.5,133.5C 245.011,129.97 244.344,126.804 242.5,124C 236.046,122.237 229.546,122.07 223,123.5C 221.941,123.37 221.108,122.87 220.5,122C 225,120.167 228.167,117 230,112.5C 231.849,114.047 233.349,115.881 234.5,118C 237.295,119.139 239.795,120.639 242,122.5C 244.571,120.024 246.071,117.024 246.5,113.5C 247.5,113.5 248.5,113.5 249.5,113.5C 248.653,116.16 248.153,118.826 248,121.5C 249.599,118.622 251.433,115.956 253.5,113.5C 254.731,114.651 254.731,115.817 253.5,117C 256.146,117.497 258.813,117.664 261.5,117.5 Z"/></g>
<g><path style="opacity:1" fill="#8d57a4" d="M 262.5,119.5 C 262.5,118.833 262.5,118.167 262.5,117.5C 266.876,118.112 267.543,116.946 264.5,114C 265.025,113.308 265.692,112.808 266.5,112.5C 267.567,114.559 268.9,116.392 270.5,118C 269.202,120.499 269.536,122.833 271.5,125C 270.747,126.487 269.914,126.654 269,125.5C 268.503,128.146 268.336,130.813 268.5,133.5C 267.325,133.719 266.325,133.386 265.5,132.5C 266.544,130.232 266.711,127.899 266,125.5C 265.035,127.26 263.868,127.594 262.5,126.5C 264.288,124.424 265.954,122.257 267.5,120C 265.866,119.506 264.199,119.34 262.5,119.5 Z"/></g>
<g><path style="opacity:1" fill="#8b54a2" d="M 100.5,114.5 C 105.544,114.173 110.544,114.506 115.5,115.5C 113,115.833 110.5,116.167 108,116.5C 105.071,116.475 102.571,115.809 100.5,114.5 Z"/></g>
<g><path style="opacity:1" fill="#ada1ea" d="M 64.5,115.5 C 66.288,115.215 67.9547,115.548 69.5,116.5C 68.6667,116.833 67.8333,117.167 67,117.5C 65.6244,117.316 64.7911,116.649 64.5,115.5 Z"/></g>
<g><path style="opacity:1" fill="#ada1ea" d="M 165.5,116.5 C 166.675,116.281 167.675,116.614 168.5,117.5C 167.277,118.614 165.944,118.781 164.5,118C 165.056,117.617 165.389,117.117 165.5,116.5 Z"/></g>
<g><path style="opacity:1" fill="#8d57a4" d="M 206.5,124.5 C 206.5,124.833 206.5,125.167 206.5,125.5C 205.883,125.611 205.383,125.944 205,126.5C 204.108,123.716 202.942,121.05 201.5,118.5C 202.035,116.729 202.869,116.396 204,117.5C 205.136,119.743 205.97,122.076 206.5,124.5 Z"/></g>
<g><path style="opacity:1" fill="#ada1ea" d="M 229.5,117.5 C 234.965,120.225 234.632,120.892 228.5,119.5C 228.863,118.817 229.196,118.15 229.5,117.5 Z"/></g>
<g><path style="opacity:1" fill="#9b79c4" d="M 261.5,117.5 C 261.833,117.5 262.167,117.5 262.5,117.5C 262.5,118.167 262.5,118.833 262.5,119.5C 259.833,119.5 257.167,119.5 254.5,119.5C 256.833,118.833 259.167,118.167 261.5,117.5 Z"/></g>
<g><path style="opacity:1" fill="#ada1ea" d="M 43.5,118.5 C 46.8333,118.5 50.1667,118.5 53.5,118.5C 53.5,119.5 53.5,120.5 53.5,121.5C 50.1667,121.5 46.8333,121.5 43.5,121.5C 43.5,120.5 43.5,119.5 43.5,118.5 Z"/></g>
<g><path style="opacity:1" fill="#ada1ea" d="M 64.5,119.5 C 66.288,119.215 67.9547,119.548 69.5,120.5C 68.6667,120.833 67.8333,121.167 67,121.5C 65.6244,121.316 64.7911,120.649 64.5,119.5 Z"/></g>
<g><path style="opacity:1" fill="#ada1ea" d="M 129.5,119.5 C 130.586,119.62 131.253,120.287 131.5,121.5C 131.167,122.167 130.833,122.833 130.5,123.5C 129.571,122.311 129.238,120.978 129.5,119.5 Z"/></g>
<g><path style="opacity:1" fill="#ada1ea" d="M 134.5,119.5 C 135.586,119.62 136.253,120.287 136.5,121.5C 136.167,122.167 135.833,122.833 135.5,123.5C 134.571,122.311 134.238,120.978 134.5,119.5 Z"/></g>
<g><path style="opacity:1" fill="#9b79c4" d="M 170.5,119.5 C 172.199,119.34 173.866,119.506 175.5,120C 173.415,122.139 171.749,121.972 170.5,119.5 Z"/></g>
<g><path style="opacity:1" fill="#9b79c4" d="M 207.5,119.5 C 208.833,122.833 208.833,126.167 207.5,129.5C 207.768,127.901 207.434,126.568 206.5,125.5C 206.5,125.167 206.5,124.833 206.5,124.5C 207.451,123.081 207.784,121.415 207.5,119.5 Z"/></g>
<g><path style="opacity:1" fill="#8d57a5" d="M 98.5,120.5 C 104.868,120.17 111.202,120.504 117.5,121.5C 114.167,122.167 110.833,122.833 107.5,123.5C 103.127,128.847 104.461,130.514 111.5,128.5C 109.34,126.907 109.173,125.24 111,123.5C 113.51,126.199 115.176,129.199 116,132.5C 115.667,132.833 115.333,133.167 115,133.5C 114.167,132.5 113.333,131.5 112.5,130.5C 108.833,131.167 105.167,131.833 101.5,132.5C 100.713,131.758 100.047,130.925 99.5,130C 101.71,128.285 103.376,126.119 104.5,123.5C 102.025,123.036 100.025,122.036 98.5,120.5 Z"/></g>
<g><path style="opacity:1" fill="#ada1ea" d="M 125.5,120.5 C 127.085,121.002 127.585,122.002 127,123.5C 125.961,122.756 125.461,121.756 125.5,120.5 Z"/></g>
<g><path style="opacity:1" fill="#ada1ea" d="M 164.5,120.5 C 165.573,121.251 165.74,122.251 165,123.5C 163.272,122.648 163.105,121.648 164.5,120.5 Z"/></g>
<g><path style="opacity:1" fill="#ada1ea" d="M 170.5,122.5 C 175.539,122.451 175.705,123.118 171,124.5C 170.536,123.906 170.369,123.239 170.5,122.5 Z"/></g>
<g><path style="opacity:1" fill="#8d57a5" d="M 224.5,124.5 C 229.167,124.5 233.833,124.5 238.5,124.5C 238.5,127.5 238.5,130.5 238.5,133.5C 236.103,132.632 233.603,131.965 231,131.5C 227.795,131.286 225.629,131.952 224.5,133.5C 224.5,130.5 224.5,127.5 224.5,124.5 Z"/></g>
<g><path style="opacity:1" fill="#9b79c4" d="M 134.5,125.5 C 134.5,128.167 134.5,130.833 134.5,133.5C 133.209,133.737 132.209,133.404 131.5,132.5C 133.083,130.492 134.083,128.159 134.5,125.5 Z"/></g>
<g><path style="opacity:1" fill="#ada1ea" d="M 66.5,126.5 C 67.9221,126.75 68.9221,127.583 69.5,129C 67.728,130.487 65.728,130.82 63.5,130C 65.0629,129.241 66.0629,128.074 66.5,126.5 Z"/></g>
<g><path style="opacity:1" fill="#ada1ea" d="M 226.5,126.5 C 229.5,126.5 232.5,126.5 235.5,126.5C 235.5,127.5 235.5,128.5 235.5,129.5C 232.5,129.5 229.5,129.5 226.5,129.5C 226.5,128.5 226.5,127.5 226.5,126.5 Z"/></g>
<g><path style="opacity:1" fill="#8d57a5" d="M 138.5,153.5 C 142.909,152.899 144.242,154.566 142.5,158.5C 137.732,159.889 136.398,158.223 138.5,153.5 Z"/></g>
<g><path style="opacity:1" fill="#8d57a5" d="M 148.5,153.5 C 153.159,153.015 154.492,154.848 152.5,159C 147.728,159.81 146.395,157.977 148.5,153.5 Z"/></g>
<g><path style="opacity:1" fill="#8d57a5" d="M 158.5,153.5 C 162.909,152.899 164.242,154.566 162.5,158.5C 157.732,159.889 156.398,158.223 158.5,153.5 Z"/></g>
<g><path style="opacity:1" fill="#8d57a5" d="M 168.5,153.5 C 173.159,153.015 174.492,154.848 172.5,159C 167.728,159.81 166.395,157.977 168.5,153.5 Z"/></g>
<g><path style="opacity:1" fill="#8d57a5" d="M 178.5,153.5 C 182.909,152.899 184.242,154.566 182.5,158.5C 177.732,159.889 176.398,158.223 178.5,153.5 Z"/></g>
<g><path style="opacity:1" fill="#8d56a4" d="M 150.5,176.5 C 155.016,176.256 158.016,178.256 159.5,182.5C 160.984,178.256 163.984,176.256 168.5,176.5C 168.064,181.436 165.397,184.269 160.5,185C 162.081,185.707 163.581,186.54 165,187.5C 170.143,183.543 173.976,184.709 176.5,191C 175.653,194.513 173.487,196.68 170,197.5C 170.756,201.804 168.923,204.637 164.5,206C 166.569,211.029 164.902,213.862 159.5,214.5C 154.098,213.862 152.431,211.029 154.5,206C 150.077,204.637 148.244,201.804 149,197.5C 140.333,193.167 140.333,188.833 149,184.5C 150.892,185.13 152.559,186.13 154,187.5C 155.419,186.54 156.919,185.707 158.5,185C 153.603,184.269 150.936,181.436 150.5,176.5 Z"/></g>
<g><path style="opacity:1" fill="#ada1ea" d="M 146.5,188.5 C 154.44,190.222 154.44,191.889 146.5,193.5C 146.5,191.833 146.5,190.167 146.5,188.5 Z"/></g>
<g><path style="opacity:1" fill="#ada1ea" d="M 157.5,188.5 C 161.138,187.737 162.638,189.07 162,192.5C 157.415,194.413 155.915,193.079 157.5,188.5 Z"/></g>
<g><path style="opacity:1" fill="#ada1ea" d="M 167.5,188.5 C 169.167,188.5 170.833,188.5 172.5,188.5C 172.5,190.167 172.5,191.833 172.5,193.5C 167.966,194.107 166.3,192.44 167.5,188.5 Z"/></g>
<g><path style="opacity:1" fill="#ada1ea" d="M 152.5,197.5 C 154.167,197.5 155.833,197.5 157.5,197.5C 157.5,199.167 157.5,200.833 157.5,202.5C 155.833,202.5 154.167,202.5 152.5,202.5C 152.5,200.833 152.5,199.167 152.5,197.5 Z"/></g>
<g><path style="opacity:1" fill="#ada1ea" d="M 161.5,197.5 C 163.167,197.5 164.833,197.5 166.5,197.5C 166.5,199.167 166.5,200.833 166.5,202.5C 164.833,202.5 163.167,202.5 161.5,202.5C 161.5,200.833 161.5,199.167 161.5,197.5 Z"/></g>
<g><path style="opacity:1" fill="#ada1ea" d="M 157.5,206.5 C 163.432,207.129 163.932,209.129 159,212.5C 156.521,210.912 156.021,208.912 157.5,206.5 Z"/></g>
</svg>
